<?xml version="1.0" ?><!DOCTYPE svg  PUBLIC '-//W3C//DTD SVG 1.1//EN'  'http://www.w3.org/Graphics/SVG/1.1/DTD/svg11.dtd'><svg enable-background="new 0 0 512 512" height="512px" id="Layer_1" version="1.1" viewBox="0 0 512 512" width="512px" xml:space="preserve" xmlns="http://www.w3.org/2000/svg" xmlns:xlink="http://www.w3.org/1999/xlink"><g><path d="M272.436,42.507H76.488c-12.68,0-22.996,10.316-22.996,22.996v80.919v160.075v80.919c0,12.681,10.316,22.997,22.996,22.997   h85.405l150.21,57.554c2.643,1.013,5.41,1.525,8.225,1.525c9.461,0,18.093-5.936,21.479-14.771l86.225-225.043l28.951-75.561   c0.015-0.038,0.023-0.078,0.038-0.116c0.086-0.233,0.166-0.469,0.231-0.704c1.881-5.509,1.643-11.429-0.741-16.773   c-2.502-5.61-7.039-9.911-12.775-12.108L295.432,67.592v-2.089C295.432,52.823,285.115,42.507,272.436,42.507z M299.632,133.162   c0.288,0.029,0.576,0.058,0.863,0.089c1.356,0.149,2.711,0.321,4.061,0.515c0.272,0.039,0.543,0.082,0.815,0.122   c1.28,0.192,2.56,0.4,3.835,0.632c0.146,0.025,0.292,0.049,0.438,0.076c1.358,0.25,2.714,0.529,4.065,0.825   c0.306,0.066,0.612,0.134,0.918,0.203c1.341,0.304,2.679,0.624,4.012,0.971c0.195,0.051,0.391,0.106,0.586,0.158   c1.227,0.325,2.449,0.671,3.668,1.032c0.25,0.074,0.499,0.146,0.748,0.221c1.314,0.399,2.625,0.822,3.93,1.264   c0.287,0.098,0.573,0.197,0.859,0.297c1.346,0.466,2.688,0.946,4.023,1.458c1.194,0.458,2.379,0.933,3.555,1.425   c0.395,0.164,0.782,0.342,1.174,0.51c0.778,0.334,1.558,0.666,2.327,1.016c0.458,0.207,0.909,0.428,1.364,0.642   c0.695,0.325,1.393,0.646,2.082,0.983c0.476,0.233,0.943,0.479,1.416,0.719c0.658,0.332,1.318,0.661,1.97,1.004   c0.484,0.256,0.961,0.523,1.441,0.785c0.63,0.342,1.262,0.681,1.884,1.033c0.485,0.273,0.962,0.56,1.442,0.84   c0.609,0.355,1.222,0.707,1.824,1.072c0.479,0.291,0.95,0.592,1.426,0.888c0.594,0.37,1.188,0.737,1.776,1.116   c0.471,0.305,0.936,0.621,1.402,0.932c0.58,0.386,1.162,0.769,1.734,1.164c0.464,0.318,0.92,0.648,1.379,0.973   c0.565,0.4,1.132,0.799,1.69,1.209c0.455,0.333,0.903,0.676,1.354,1.015c0.552,0.416,1.104,0.83,1.649,1.255   c0.444,0.346,0.881,0.7,1.32,1.052c0.539,0.431,1.078,0.86,1.609,1.3c0.436,0.36,0.864,0.728,1.294,1.093   c0.524,0.445,1.049,0.89,1.565,1.343c0.424,0.372,0.842,0.752,1.262,1.129c0.511,0.46,1.021,0.92,1.524,1.388   c0.412,0.384,0.818,0.773,1.226,1.162c0.498,0.475,0.995,0.95,1.484,1.433c0.4,0.395,0.796,0.796,1.191,1.196   c0.483,0.489,0.967,0.979,1.442,1.476c0.389,0.406,0.771,0.817,1.155,1.229c0.469,0.503,0.938,1.008,1.398,1.519   c0.377,0.417,0.749,0.839,1.12,1.261c0.454,0.516,0.907,1.033,1.353,1.557c0.365,0.429,0.726,0.861,1.085,1.294   c0.439,0.53,0.877,1.062,1.308,1.599c0.352,0.438,0.699,0.879,1.045,1.32c0.424,0.543,0.846,1.089,1.262,1.639   c0.34,0.448,0.676,0.9,1.01,1.354c0.407,0.554,0.812,1.109,1.21,1.67c0.328,0.461,0.652,0.924,0.974,1.389   c0.392,0.564,0.778,1.132,1.16,1.702c0.315,0.471,0.627,0.944,0.936,1.419c0.374,0.575,0.744,1.153,1.109,1.734   c0.302,0.482,0.602,0.965,0.897,1.451c0.356,0.584,0.708,1.173,1.056,1.764c0.289,0.491,0.575,0.984,0.857,1.479   c0.34,0.597,0.674,1.196,1.004,1.798c0.275,0.501,0.549,1.003,0.818,1.509c0.321,0.604,0.636,1.211,0.948,1.821   c0.262,0.511,0.522,1.023,0.777,1.539c0.304,0.613,0.601,1.23,0.895,1.85c0.247,0.521,0.494,1.042,0.734,1.565   c0.285,0.621,0.563,1.248,0.839,1.874c0.233,0.53,0.467,1.062,0.693,1.597c0.266,0.628,0.523,1.262,0.78,1.895   c0.22,0.541,0.438,1.082,0.651,1.627c0.246,0.635,0.484,1.273,0.722,1.913c0.204,0.552,0.41,1.103,0.607,1.657   c0.228,0.641,0.446,1.286,0.663,1.932c0.189,0.561,0.381,1.121,0.563,1.686c0.209,0.647,0.407,1.299,0.605,1.951   c0.174,0.569,0.35,1.138,0.516,1.711c0.051,0.176,0.097,0.354,0.147,0.531l-55.147,143.931c-0.313,0.198-0.625,0.402-0.94,0.597   c-0.481,0.298-0.966,0.592-1.45,0.883c-0.804,0.481-1.612,0.953-2.425,1.417c-0.474,0.271-0.945,0.542-1.421,0.806   c-0.898,0.498-1.804,0.979-2.711,1.455c-0.39,0.204-0.775,0.415-1.166,0.614c-1.303,0.665-2.611,1.312-3.933,1.931   c-0.144,0.066-0.29,0.128-0.435,0.195c-1.178,0.547-2.361,1.076-3.554,1.586c-0.445,0.191-0.894,0.371-1.341,0.557   c-0.903,0.374-1.809,0.742-2.719,1.096c-0.509,0.198-1.02,0.389-1.531,0.58c-0.869,0.325-1.742,0.641-2.618,0.947   c-0.518,0.181-1.036,0.361-1.557,0.535c-0.912,0.306-1.828,0.597-2.747,0.881c-0.476,0.148-0.949,0.301-1.427,0.443   c-1.155,0.343-2.316,0.667-3.481,0.979c-0.236,0.063-0.472,0.134-0.71,0.195c-1.402,0.366-2.812,0.705-4.227,1.023   c-0.407,0.092-0.818,0.172-1.228,0.259c-1.014,0.218-2.028,0.429-3.047,0.621c-0.523,0.099-1.05,0.189-1.574,0.282   c-0.921,0.162-1.843,0.316-2.767,0.459c-0.549,0.084-1.098,0.165-1.647,0.242c-0.932,0.131-1.865,0.25-2.8,0.36   c-0.524,0.063-1.048,0.127-1.573,0.183c-1.056,0.111-2.113,0.205-3.174,0.291c-0.398,0.032-0.795,0.072-1.193,0.102   c-0.095,0.006-0.189,0.008-0.283,0.015c0.002-0.023,0.002-0.048,0.004-0.071c0.056-0.654,0.091-1.314,0.091-1.982v-80.919V299.4   c0.047-0.012,0.093-0.026,0.14-0.038c0.645-0.156,1.284-0.331,1.918-0.52c0.137-0.04,0.273-0.079,0.41-0.122   c0.658-0.202,1.309-0.422,1.953-0.659c0.133-0.048,0.264-0.1,0.396-0.149c0.62-0.235,1.235-0.482,1.841-0.748   c0.054-0.023,0.107-0.045,0.16-0.068c0.639-0.283,1.268-0.587,1.89-0.902c0.136-0.069,0.271-0.139,0.405-0.209   c0.612-0.319,1.217-0.651,1.811-1.002c0.089-0.053,0.176-0.107,0.264-0.16c0.55-0.33,1.091-0.674,1.623-1.029   c0.096-0.064,0.192-0.125,0.287-0.189c0.568-0.388,1.127-0.791,1.675-1.208c0.118-0.089,0.233-0.18,0.351-0.271   c0.556-0.432,1.104-0.873,1.635-1.334c0.023-0.02,0.044-0.039,0.066-0.059c0.517-0.449,1.019-0.915,1.512-1.391   c0.102-0.098,0.204-0.195,0.305-0.295c0.491-0.483,0.971-0.979,1.436-1.488c0.088-0.096,0.172-0.193,0.258-0.289   c0.439-0.49,0.867-0.989,1.282-1.502c0.046-0.057,0.095-0.111,0.141-0.17c0.438-0.547,0.858-1.108,1.268-1.68   c0.087-0.123,0.175-0.246,0.261-0.369c0.402-0.575,0.792-1.159,1.163-1.757c0.048-0.076,0.092-0.153,0.138-0.23   c0.344-0.56,0.671-1.13,0.986-1.71c0.06-0.109,0.121-0.217,0.179-0.326c0.33-0.62,0.642-1.252,0.939-1.893   c0.062-0.134,0.122-0.27,0.183-0.404c0.299-0.665,0.586-1.336,0.849-2.021c3.759-9.809,3.474-20.493-0.806-30.087   c-4.278-9.593-12.036-16.946-21.845-20.705c-0.741-0.284-1.491-0.536-2.245-0.774c-0.188-0.06-0.375-0.117-0.563-0.173   c-0.711-0.214-1.426-0.411-2.146-0.583c-0.038-0.01-0.076-0.021-0.115-0.031v-76.432V132.79c0.083,0.006,0.167,0.015,0.25,0.021   C297.001,132.905,298.317,133.025,299.632,133.162z M276.014,305.386c-0.421,0.54-0.841,1.08-1.269,1.612   c-0.369,0.459-0.745,0.91-1.119,1.362c-0.438,0.528-0.875,1.058-1.32,1.577c-0.379,0.443-0.765,0.881-1.149,1.318   c-0.454,0.517-0.909,1.033-1.371,1.542c-0.389,0.428-0.782,0.85-1.177,1.272c-0.471,0.504-0.942,1.008-1.42,1.504   c-0.398,0.413-0.801,0.82-1.203,1.227c-0.488,0.493-0.977,0.984-1.472,1.469c-0.405,0.396-0.815,0.787-1.225,1.178   c-0.504,0.48-1.01,0.959-1.521,1.43c-0.414,0.383-0.832,0.76-1.251,1.137c-0.519,0.466-1.039,0.929-1.565,1.387   c-0.422,0.366-0.847,0.729-1.273,1.09c-0.534,0.453-1.07,0.901-1.611,1.345c-0.431,0.353-0.864,0.702-1.299,1.049   c-0.547,0.437-1.097,0.87-1.651,1.297c-0.438,0.339-0.879,0.674-1.322,1.007c-0.561,0.421-1.123,0.838-1.69,1.249   c-0.448,0.325-0.897,0.647-1.35,0.968c-0.571,0.403-1.146,0.802-1.724,1.196c-0.456,0.312-0.913,0.62-1.373,0.926   c-0.585,0.389-1.174,0.771-1.764,1.149c-0.463,0.297-0.926,0.592-1.393,0.882c-0.596,0.371-1.195,0.736-1.797,1.098   c-0.471,0.283-0.943,0.565-1.418,0.843c-0.605,0.353-1.214,0.698-1.824,1.041c-0.48,0.27-0.961,0.539-1.444,0.803   c-0.615,0.336-1.233,0.663-1.854,0.988c-0.486,0.256-0.973,0.511-1.463,0.76c-0.625,0.317-1.253,0.627-1.883,0.934   c-0.494,0.241-0.989,0.483-1.486,0.719c-0.635,0.299-1.272,0.59-1.911,0.879c-0.5,0.226-0.999,0.453-1.501,0.673   c-0.645,0.281-1.293,0.554-1.941,0.825c-0.506,0.211-1.012,0.424-1.52,0.629c-0.651,0.263-1.308,0.516-1.963,0.768   c-0.513,0.197-1.024,0.396-1.54,0.586c-0.658,0.244-1.32,0.477-1.982,0.709c-0.521,0.183-1.039,0.368-1.562,0.544   c-0.664,0.224-1.334,0.437-2.003,0.649c-0.524,0.168-1.049,0.339-1.576,0.5c-0.672,0.204-1.347,0.396-2.022,0.591   c-0.531,0.152-1.061,0.309-1.595,0.454c-0.678,0.186-1.359,0.357-2.041,0.531c-0.535,0.138-1.069,0.279-1.606,0.409   c-0.685,0.165-1.373,0.317-2.061,0.472c-0.541,0.121-1.079,0.248-1.621,0.362c-0.69,0.146-1.385,0.276-2.078,0.411   c-0.543,0.105-1.085,0.217-1.63,0.314c-0.7,0.127-1.405,0.238-2.108,0.354c-0.541,0.088-1.082,0.184-1.625,0.265   c-0.716,0.107-1.436,0.198-2.153,0.294c-0.534,0.071-1.067,0.15-1.604,0.214c-0.736,0.089-1.476,0.159-2.214,0.235   c-0.521,0.053-1.043,0.115-1.566,0.162c-0.771,0.069-1.547,0.121-2.322,0.176c-0.492,0.035-0.982,0.08-1.476,0.109   c-0.858,0.052-1.72,0.083-2.581,0.117c-0.412,0.017-0.822,0.043-1.234,0.055c-1.275,0.039-2.552,0.059-3.831,0.059   s-2.556-0.02-3.831-0.059c-0.412-0.012-0.822-0.038-1.233-0.055c-0.861-0.034-1.724-0.065-2.581-0.117   c-0.499-0.029-0.995-0.074-1.493-0.11c-0.769-0.056-1.538-0.105-2.304-0.175c-0.533-0.048-1.063-0.11-1.594-0.165   c-0.729-0.075-1.459-0.145-2.186-0.231c-0.544-0.065-1.084-0.146-1.626-0.217c-0.711-0.096-1.423-0.186-2.132-0.292   c-0.549-0.082-1.096-0.179-1.643-0.268c-0.697-0.114-1.396-0.224-2.091-0.35c-0.55-0.1-1.097-0.212-1.646-0.318   c-0.688-0.134-1.377-0.263-2.063-0.407c-0.549-0.116-1.094-0.244-1.641-0.367c-0.68-0.153-1.36-0.303-2.037-0.467   c-0.549-0.133-1.093-0.277-1.639-0.416c-0.67-0.172-1.341-0.341-2.008-0.523c-0.545-0.148-1.088-0.309-1.631-0.465   c-0.662-0.19-1.325-0.379-1.984-0.58c-0.54-0.164-1.077-0.34-1.615-0.511c-0.655-0.21-1.312-0.417-1.963-0.638   c-0.537-0.18-1.069-0.371-1.603-0.559c-0.647-0.227-1.296-0.454-1.938-0.692c-0.531-0.196-1.058-0.401-1.585-0.604   c-0.641-0.247-1.28-0.493-1.917-0.749c-0.523-0.211-1.045-0.431-1.566-0.648c-0.633-0.266-1.266-0.531-1.894-0.806   c-0.517-0.226-1.03-0.459-1.543-0.691c-0.626-0.283-1.25-0.567-1.87-0.86c-0.512-0.241-1.019-0.489-1.526-0.737   c-0.616-0.301-1.23-0.603-1.842-0.913c-0.503-0.256-1.003-0.519-1.503-0.781c-0.607-0.317-1.213-0.639-1.814-0.966   c-0.496-0.271-0.99-0.548-1.483-0.825c-0.597-0.335-1.192-0.674-1.783-1.019c-0.488-0.284-0.974-0.574-1.458-0.865   c-0.588-0.354-1.175-0.71-1.758-1.073c-0.479-0.299-0.955-0.602-1.43-0.906c-0.578-0.371-1.153-0.744-1.726-1.125   c-0.472-0.313-0.94-0.629-1.408-0.949c-0.566-0.387-1.13-0.777-1.689-1.173c-0.464-0.327-0.925-0.658-1.385-0.992   c-0.554-0.402-1.104-0.81-1.653-1.222c-0.455-0.342-0.908-0.686-1.358-1.034c-0.542-0.418-1.081-0.842-1.616-1.269   c-0.445-0.356-0.891-0.715-1.332-1.076c-0.53-0.435-1.057-0.875-1.58-1.318c-0.436-0.369-0.869-0.739-1.301-1.113   c-0.517-0.45-1.029-0.906-1.54-1.364c-0.427-0.384-0.854-0.769-1.275-1.159c-0.503-0.464-1.001-0.935-1.498-1.407   c-0.417-0.397-0.833-0.794-1.244-1.197c-0.49-0.479-0.974-0.966-1.457-1.453c-0.407-0.411-0.813-0.823-1.215-1.239   c-0.476-0.493-0.943-0.993-1.411-1.494c-0.396-0.426-0.793-0.85-1.185-1.281c-0.46-0.507-0.914-1.021-1.367-1.537   c-0.386-0.438-0.771-0.876-1.151-1.32c-0.445-0.521-0.883-1.049-1.32-1.577c-0.374-0.452-0.749-0.903-1.117-1.36   c-0.431-0.535-0.853-1.078-1.275-1.62c-0.362-0.465-0.727-0.929-1.082-1.399c-0.112-0.148-0.22-0.299-0.331-0.447V149.386   c0.111-0.147,0.219-0.3,0.331-0.447c0.355-0.471,0.72-0.935,1.082-1.399c0.423-0.543,0.845-1.085,1.275-1.619   c0.368-0.458,0.743-0.909,1.117-1.361c0.438-0.528,0.875-1.057,1.32-1.577c0.38-0.444,0.766-0.882,1.151-1.32   c0.453-0.516,0.907-1.03,1.367-1.538c0.392-0.431,0.788-0.855,1.185-1.28c0.468-0.501,0.936-1.001,1.411-1.493   c0.401-0.418,0.808-0.829,1.215-1.24c0.483-0.487,0.967-0.974,1.457-1.453c0.411-0.402,0.827-0.801,1.244-1.197   c0.497-0.473,0.995-0.943,1.498-1.408c0.423-0.39,0.849-0.774,1.276-1.158c0.51-0.458,1.021-0.913,1.537-1.362   c0.433-0.376,0.868-0.747,1.305-1.117c0.523-0.442,1.049-0.882,1.578-1.316c0.441-0.362,0.886-0.72,1.332-1.075   c0.535-0.428,1.074-0.852,1.616-1.27c0.45-0.348,0.903-0.693,1.358-1.035c0.549-0.411,1.1-0.818,1.653-1.221   c0.46-0.334,0.921-0.664,1.385-0.992c0.56-0.396,1.123-0.787,1.689-1.174c0.468-0.318,0.937-0.636,1.408-0.949   c0.572-0.379,1.147-0.754,1.726-1.124c0.475-0.305,0.951-0.607,1.43-0.905c0.583-0.363,1.17-0.721,1.758-1.074   c0.484-0.291,0.97-0.58,1.458-0.865c0.591-0.346,1.187-0.684,1.783-1.019c0.493-0.277,0.987-0.554,1.483-0.825   c0.602-0.328,1.207-0.648,1.814-0.967c0.5-0.262,1-0.523,1.503-0.779c0.611-0.311,1.226-0.613,1.842-0.914   c0.508-0.248,1.015-0.496,1.526-0.737c0.62-0.293,1.244-0.577,1.87-0.86c0.513-0.232,1.026-0.466,1.543-0.691   c0.628-0.275,1.261-0.54,1.894-0.805c0.521-0.219,1.043-0.438,1.566-0.649c0.637-0.257,1.276-0.503,1.917-0.749   c0.527-0.203,1.054-0.408,1.585-0.604c0.643-0.238,1.291-0.465,1.938-0.693c0.533-0.188,1.065-0.377,1.603-0.559   c0.651-0.219,1.308-0.428,1.963-0.637c0.538-0.172,1.075-0.347,1.615-0.512c0.659-0.2,1.322-0.389,1.984-0.579   c0.543-0.156,1.086-0.316,1.631-0.466c0.665-0.181,1.334-0.35,2.001-0.521c0.549-0.14,1.097-0.285,1.647-0.419   c0.675-0.163,1.354-0.313,2.03-0.465c0.549-0.123,1.096-0.252,1.646-0.367c0.686-0.145,1.375-0.275,2.063-0.408   c0.549-0.106,1.096-0.219,1.646-0.318c0.695-0.125,1.394-0.235,2.091-0.35c0.547-0.09,1.094-0.186,1.643-0.268   c0.709-0.106,1.421-0.197,2.132-0.291c0.542-0.072,1.082-0.152,1.626-0.217c0.727-0.088,1.457-0.158,2.186-0.232   c0.531-0.055,1.061-0.117,1.594-0.165c0.766-0.069,1.535-0.12,2.304-0.175c0.498-0.035,0.994-0.08,1.493-0.11   c0.857-0.052,1.72-0.083,2.581-0.117c0.411-0.017,0.821-0.043,1.233-0.056c1.275-0.038,2.552-0.058,3.831-0.058   s2.556,0.02,3.831,0.058c0.412,0.013,0.822,0.039,1.234,0.056c0.861,0.034,1.723,0.065,2.581,0.117   c0.498,0.03,0.993,0.075,1.49,0.11c0.77,0.055,1.539,0.105,2.306,0.175c0.532,0.048,1.063,0.11,1.594,0.165   c0.729,0.074,1.459,0.145,2.186,0.232c0.543,0.064,1.084,0.145,1.625,0.217c0.712,0.094,1.424,0.185,2.133,0.291   c0.549,0.082,1.096,0.178,1.643,0.268c0.697,0.114,1.396,0.225,2.09,0.35c0.551,0.1,1.098,0.212,1.646,0.318   c0.688,0.133,1.377,0.264,2.063,0.408c0.55,0.115,1.096,0.244,1.645,0.367c0.678,0.152,1.356,0.302,2.031,0.465   c0.551,0.134,1.098,0.278,1.646,0.419c0.668,0.171,1.336,0.339,2.001,0.521c0.547,0.15,1.09,0.311,1.634,0.467   c0.661,0.189,1.323,0.378,1.981,0.578c0.541,0.165,1.079,0.341,1.617,0.513c0.655,0.209,1.311,0.417,1.962,0.636   c0.536,0.182,1.069,0.371,1.604,0.56c0.646,0.228,1.294,0.454,1.938,0.692c0.53,0.195,1.057,0.4,1.584,0.604   c0.641,0.246,1.281,0.493,1.918,0.75c0.523,0.211,1.045,0.43,1.565,0.648c0.633,0.264,1.265,0.529,1.894,0.805   c0.518,0.226,1.03,0.459,1.545,0.691c0.624,0.283,1.248,0.567,1.868,0.86c0.512,0.241,1.02,0.489,1.527,0.737   c0.615,0.301,1.229,0.604,1.841,0.913c0.504,0.256,1.004,0.519,1.505,0.781c0.605,0.317,1.21,0.638,1.812,0.966   c0.498,0.271,0.992,0.549,1.487,0.826c0.595,0.335,1.188,0.672,1.778,1.016c0.49,0.286,0.977,0.577,1.463,0.869   c0.587,0.353,1.172,0.709,1.752,1.07c0.48,0.299,0.959,0.603,1.435,0.908c0.577,0.37,1.151,0.743,1.722,1.122   c0.474,0.314,0.944,0.633,1.414,0.953c0.563,0.385,1.125,0.774,1.683,1.169c0.466,0.328,0.929,0.661,1.391,0.996   c0.552,0.401,1.102,0.808,1.648,1.218c0.456,0.343,0.909,0.688,1.361,1.036c0.541,0.418,1.079,0.842,1.614,1.268   c0.446,0.357,0.892,0.716,1.334,1.078c0.528,0.434,1.053,0.872,1.574,1.313c0.438,0.371,0.875,0.744,1.309,1.121   c0.516,0.448,1.025,0.901,1.533,1.358c0.429,0.385,0.856,0.771,1.28,1.162c0.502,0.463,0.999,0.932,1.494,1.404   c0.418,0.398,0.836,0.797,1.249,1.201c0.487,0.478,0.97,0.961,1.45,1.447c0.409,0.413,0.817,0.826,1.222,1.246   c0.473,0.49,0.939,0.988,1.404,1.487c0.398,0.427,0.798,0.854,1.191,1.287c0.457,0.505,0.908,1.017,1.359,1.529   c0.388,0.441,0.776,0.882,1.158,1.329c0.443,0.518,0.879,1.043,1.313,1.568c0.376,0.455,0.754,0.908,1.125,1.369   c0.428,0.531,0.847,1.07,1.267,1.609c0.365,0.469,0.731,0.936,1.09,1.41c0.111,0.146,0.219,0.297,0.329,0.444v81.426v60.649v12.072   c-0.11,0.147-0.218,0.298-0.329,0.444C276.745,304.451,276.378,304.918,276.014,305.386z M296.485,242.35   c0.346,0.185,0.688,0.373,1.021,0.575c0.246,0.148,0.486,0.305,0.725,0.463c0.318,0.21,0.631,0.429,0.936,0.655   c0.232,0.172,0.461,0.348,0.686,0.529c0.294,0.238,0.58,0.486,0.861,0.739c0.213,0.192,0.425,0.384,0.63,0.585   c0.274,0.268,0.536,0.549,0.795,0.832c0.189,0.207,0.382,0.41,0.563,0.625c0.259,0.305,0.5,0.625,0.741,0.945   c0.159,0.213,0.325,0.419,0.477,0.638c0.254,0.364,0.486,0.745,0.717,1.127c0.117,0.192,0.244,0.378,0.354,0.574   c0.331,0.587,0.64,1.19,0.917,1.813c2.32,5.202,2.476,10.996,0.437,16.315c-0.229,0.596-0.489,1.173-0.769,1.739   c-0.084,0.172-0.176,0.339-0.266,0.508c-0.209,0.398-0.429,0.789-0.661,1.171c-0.107,0.175-0.216,0.351-0.327,0.522   c-0.259,0.396-0.531,0.783-0.814,1.16c-0.093,0.123-0.179,0.25-0.273,0.371c-0.383,0.487-0.784,0.957-1.206,1.408   c-0.088,0.095-0.184,0.182-0.273,0.274c-0.342,0.353-0.693,0.693-1.058,1.021c-0.15,0.136-0.305,0.267-0.459,0.397   c-0.332,0.281-0.671,0.552-1.018,0.812c-0.158,0.118-0.313,0.238-0.473,0.352c-0.438,0.311-0.889,0.605-1.349,0.883   c-0.067,0.041-0.132,0.087-0.201,0.127c-0.528,0.311-1.073,0.595-1.627,0.859c-0.046,0.021-0.093,0.04-0.139,0.062v-38.605   c0.101,0.047,0.206,0.086,0.306,0.134C295.991,242.084,296.237,242.218,296.485,242.35z M71.492,65.503   c0-2.755,2.241-4.996,4.996-4.996h195.947c2.755,0,4.996,2.241,4.996,4.996v8.278v48.316c-0.16-0.157-0.324-0.31-0.485-0.466   c-0.348-0.339-0.699-0.673-1.049-1.009c-0.633-0.605-1.271-1.205-1.914-1.799c-0.363-0.334-0.727-0.668-1.092-0.998   c-0.678-0.613-1.361-1.217-2.05-1.816c-0.325-0.283-0.647-0.569-0.976-0.85c-0.981-0.839-1.971-1.667-2.973-2.479   c-0.032-0.026-0.064-0.054-0.097-0.08c-1.039-0.841-2.091-1.663-3.151-2.475c-0.322-0.247-0.648-0.487-0.973-0.73   c-0.75-0.564-1.503-1.123-2.263-1.672c-0.38-0.274-0.763-0.546-1.146-0.817c-0.733-0.52-1.471-1.031-2.213-1.537   c-0.377-0.256-0.752-0.514-1.131-0.766c-0.837-0.56-1.682-1.107-2.529-1.648c-0.276-0.177-0.55-0.357-0.826-0.532   c-1.134-0.713-2.276-1.411-3.428-2.093c-0.197-0.117-0.396-0.228-0.594-0.343c-0.953-0.558-1.911-1.106-2.877-1.643   c-0.374-0.208-0.751-0.411-1.127-0.616c-0.807-0.438-1.617-0.871-2.432-1.295c-0.409-0.213-0.818-0.424-1.229-0.633   c-0.826-0.42-1.656-0.83-2.49-1.234c-0.375-0.183-0.75-0.367-1.127-0.547c-1.07-0.508-2.146-1.002-3.228-1.484   c-0.133-0.06-0.265-0.122-0.397-0.181c-1.227-0.542-2.461-1.065-3.701-1.573c-0.328-0.135-0.658-0.262-0.986-0.393   c-0.912-0.366-1.827-0.726-2.747-1.073c-0.425-0.161-0.851-0.317-1.276-0.474c-0.85-0.313-1.701-0.617-2.557-0.913   c-0.433-0.15-0.864-0.3-1.298-0.446c-0.919-0.309-1.843-0.606-2.769-0.897c-0.354-0.111-0.705-0.228-1.059-0.336   c-1.282-0.393-2.568-0.771-3.861-1.128c-0.129-0.035-0.258-0.066-0.387-0.102c-1.157-0.316-2.319-0.619-3.485-0.907   c-0.415-0.103-0.831-0.198-1.246-0.298c-0.896-0.213-1.794-0.42-2.694-0.616c-0.465-0.102-0.932-0.2-1.398-0.298   c-0.884-0.184-1.771-0.357-2.659-0.525c-0.445-0.084-0.89-0.171-1.337-0.251c-1.047-0.188-2.098-0.361-3.149-0.526   c-0.276-0.043-0.551-0.092-0.827-0.134c-1.327-0.2-2.658-0.382-3.992-0.545c-0.344-0.042-0.688-0.076-1.032-0.116   c-0.996-0.114-1.993-0.223-2.993-0.316c-0.471-0.045-0.943-0.084-1.416-0.124c-0.893-0.075-1.787-0.144-2.683-0.203   c-0.487-0.032-0.974-0.063-1.462-0.091c-0.933-0.053-1.867-0.094-2.803-0.127c-0.43-0.017-0.857-0.037-1.286-0.049   c-1.354-0.037-2.711-0.062-4.07-0.062s-2.716,0.024-4.07,0.062c-0.431,0.012-0.859,0.032-1.289,0.049   c-0.934,0.034-1.865,0.074-2.796,0.127c-0.491,0.027-0.98,0.059-1.471,0.092c-0.893,0.059-1.784,0.127-2.674,0.202   c-0.475,0.04-0.948,0.079-1.422,0.124c-0.997,0.094-1.992,0.201-2.985,0.316c-0.347,0.04-0.694,0.074-1.04,0.116   c-1.333,0.164-2.662,0.345-3.988,0.545c-0.281,0.042-0.562,0.093-0.843,0.137c-1.046,0.164-2.09,0.337-3.131,0.522   c-0.451,0.081-0.901,0.168-1.353,0.254c-0.882,0.166-1.763,0.34-2.641,0.522c-0.473,0.099-0.945,0.198-1.416,0.302   c-0.892,0.193-1.779,0.398-2.666,0.609c-0.424,0.102-0.85,0.199-1.272,0.304c-1.145,0.283-2.284,0.58-3.421,0.89   c-0.15,0.041-0.301,0.078-0.451,0.12c-1.287,0.355-2.568,0.731-3.845,1.122c-0.367,0.113-0.731,0.233-1.098,0.349   c-0.911,0.286-1.819,0.579-2.725,0.884c-0.445,0.149-0.89,0.304-1.334,0.458c-0.84,0.291-1.677,0.591-2.511,0.896   c-0.439,0.161-0.878,0.323-1.315,0.488c-0.903,0.341-1.8,0.694-2.695,1.053c-0.345,0.138-0.69,0.271-1.032,0.411   c-1.234,0.506-2.463,1.025-3.682,1.564c-0.16,0.07-0.317,0.146-0.477,0.217c-1.055,0.471-2.104,0.953-3.146,1.447   c-0.391,0.186-0.777,0.377-1.165,0.565c-0.82,0.397-1.637,0.802-2.449,1.214c-0.421,0.215-0.841,0.431-1.261,0.649   c-0.801,0.417-1.598,0.843-2.391,1.274c-0.389,0.211-0.777,0.42-1.162,0.634c-0.945,0.525-1.885,1.063-2.818,1.609   c-0.216,0.126-0.435,0.248-0.649,0.375c-1.147,0.679-2.284,1.374-3.412,2.084c-0.288,0.181-0.572,0.369-0.859,0.552   c-0.837,0.535-1.671,1.076-2.498,1.629c-0.384,0.256-0.765,0.517-1.146,0.775c-0.736,0.502-1.469,1.011-2.197,1.525   c-0.387,0.274-0.773,0.549-1.157,0.827c-0.757,0.547-1.508,1.104-2.255,1.665c-0.325,0.245-0.652,0.486-0.977,0.733   c-1.061,0.812-2.113,1.635-3.152,2.477c-0.024,0.019-0.048,0.039-0.072,0.059c-1.011,0.819-2.01,1.656-3.001,2.504   c-0.32,0.274-0.637,0.555-0.955,0.832c-0.696,0.606-1.389,1.218-2.074,1.837c-0.358,0.324-0.714,0.65-1.068,0.978   c-0.655,0.604-1.306,1.216-1.95,1.833c-0.339,0.324-0.678,0.646-1.014,0.974c-0.165,0.161-0.334,0.317-0.499,0.479V65.503z    M71.492,387.416v-56.595c0.165,0.162,0.334,0.318,0.499,0.479c0.336,0.327,0.675,0.649,1.014,0.974   c0.645,0.617,1.295,1.229,1.95,1.833c0.354,0.327,0.71,0.654,1.068,0.978c0.686,0.62,1.378,1.23,2.074,1.837   c0.318,0.277,0.635,0.558,0.955,0.832c0.991,0.848,1.99,1.684,3.001,2.504c0.024,0.02,0.048,0.039,0.072,0.059   c1.039,0.842,2.093,1.666,3.154,2.479c0.321,0.245,0.647,0.484,0.971,0.729c0.748,0.563,1.5,1.12,2.259,1.668   c0.384,0.278,0.771,0.553,1.157,0.826c0.729,0.516,1.461,1.023,2.197,1.525c0.381,0.26,0.762,0.521,1.146,0.776   c0.827,0.552,1.661,1.093,2.498,1.628c0.287,0.184,0.571,0.371,0.859,0.553c1.128,0.71,2.265,1.405,3.412,2.084   c0.215,0.127,0.434,0.248,0.649,0.375c0.934,0.546,1.873,1.084,2.818,1.609c0.385,0.215,0.773,0.423,1.162,0.634   c0.793,0.432,1.59,0.857,2.391,1.274c0.42,0.219,0.84,0.436,1.261,0.649c0.813,0.413,1.629,0.816,2.449,1.214   c0.388,0.188,0.774,0.38,1.165,0.564c1.043,0.495,2.092,0.978,3.146,1.447c0.159,0.072,0.316,0.146,0.477,0.218   c1.219,0.538,2.447,1.059,3.682,1.563c0.342,0.141,0.688,0.273,1.032,0.412c0.896,0.358,1.792,0.711,2.695,1.053   c0.438,0.166,0.876,0.326,1.315,0.488c0.834,0.307,1.671,0.605,2.511,0.896c0.444,0.154,0.889,0.309,1.334,0.459   c0.905,0.304,1.813,0.597,2.725,0.883c0.366,0.115,0.73,0.235,1.098,0.348c1.276,0.391,2.558,0.768,3.845,1.123   c0.15,0.042,0.301,0.078,0.451,0.119c1.137,0.311,2.276,0.607,3.421,0.891c0.423,0.105,0.849,0.203,1.272,0.304   c0.887,0.211,1.774,0.415,2.666,0.61c0.471,0.103,0.943,0.203,1.416,0.301c0.878,0.183,1.759,0.355,2.641,0.522   c0.451,0.085,0.901,0.173,1.353,0.253c1.041,0.188,2.085,0.359,3.131,0.523c0.281,0.045,0.562,0.095,0.843,0.137   c1.326,0.2,2.655,0.381,3.988,0.545c0.346,0.042,0.693,0.076,1.04,0.116c0.993,0.114,1.988,0.223,2.985,0.317   c0.474,0.044,0.947,0.083,1.422,0.123c0.89,0.076,1.781,0.144,2.674,0.203c0.49,0.032,0.979,0.063,1.471,0.091   c0.931,0.053,1.862,0.093,2.796,0.128c0.43,0.016,0.858,0.035,1.289,0.048c1.354,0.038,2.711,0.062,4.07,0.062   s2.716-0.023,4.07-0.062c0.429-0.013,0.856-0.032,1.286-0.048c0.936-0.035,1.87-0.075,2.803-0.128   c0.488-0.027,0.975-0.059,1.462-0.091c0.896-0.06,1.79-0.128,2.683-0.203c0.473-0.04,0.945-0.079,1.416-0.123   c1-0.096,1.997-0.203,2.993-0.318c0.344-0.039,0.688-0.073,1.032-0.115c1.334-0.164,2.665-0.345,3.992-0.545   c0.276-0.042,0.551-0.091,0.827-0.135c1.052-0.164,2.103-0.338,3.149-0.525c0.447-0.08,0.892-0.166,1.337-0.251   c0.889-0.167,1.775-0.342,2.659-0.526c0.467-0.097,0.934-0.195,1.398-0.297c0.9-0.197,1.799-0.403,2.694-0.617   c0.415-0.099,0.831-0.194,1.246-0.297c1.166-0.288,2.328-0.59,3.485-0.907c0.129-0.035,0.258-0.066,0.387-0.102   c1.293-0.358,2.579-0.735,3.861-1.128c0.354-0.108,0.705-0.225,1.059-0.336c0.926-0.291,1.85-0.589,2.769-0.898   c0.434-0.146,0.865-0.295,1.298-0.445c0.855-0.297,1.707-0.601,2.557-0.913c0.426-0.157,0.852-0.313,1.276-0.474   c0.92-0.348,1.835-0.707,2.747-1.073c0.328-0.132,0.658-0.259,0.986-0.393c1.24-0.509,2.475-1.031,3.701-1.573   c0.133-0.059,0.265-0.121,0.397-0.181c1.082-0.481,2.157-0.977,3.228-1.484c0.377-0.179,0.752-0.364,1.127-0.546   c0.834-0.404,1.664-0.815,2.49-1.235c0.41-0.209,0.819-0.42,1.229-0.632c0.814-0.425,1.625-0.857,2.432-1.297   c0.376-0.204,0.753-0.407,1.127-0.615c0.966-0.536,1.924-1.084,2.877-1.643c0.197-0.115,0.396-0.227,0.594-0.343   c1.151-0.682,2.294-1.38,3.428-2.093c0.276-0.175,0.55-0.355,0.826-0.531c0.848-0.542,1.692-1.09,2.529-1.649   c0.379-0.253,0.754-0.51,1.131-0.767c0.742-0.505,1.479-1.017,2.213-1.536c0.383-0.271,0.765-0.542,1.146-0.817   c0.761-0.55,1.516-1.109,2.267-1.675c0.322-0.242,0.646-0.481,0.967-0.726c1.062-0.813,2.113-1.635,3.153-2.477   c0.032-0.026,0.064-0.054,0.097-0.08c1.002-0.813,1.991-1.641,2.973-2.479c0.328-0.28,0.65-0.567,0.976-0.851   c0.688-0.599,1.372-1.202,2.05-1.814c0.365-0.331,0.729-0.665,1.092-1c0.644-0.593,1.281-1.193,1.914-1.799   c0.35-0.335,0.701-0.669,1.049-1.008c0.161-0.156,0.325-0.309,0.485-0.466v56.595c0,0.313-0.037,0.616-0.093,0.914   c-0.009,0.048-0.016,0.098-0.025,0.146c-0.061,0.275-0.145,0.541-0.248,0.797c-0.026,0.064-0.055,0.128-0.084,0.19   c-0.107,0.238-0.229,0.467-0.37,0.684c-0.052,0.076-0.11,0.147-0.166,0.222c-0.101,0.136-0.208,0.265-0.321,0.39   c-0.09,0.098-0.178,0.196-0.274,0.287c-0.15,0.142-0.311,0.271-0.478,0.395c-0.113,0.082-0.252,0.168-0.392,0.253   c-0.098,0.059-0.198,0.112-0.301,0.164c-0.139,0.071-0.278,0.142-0.437,0.205c-0.149,0.06-0.308,0.101-0.465,0.146   c-0.126,0.036-0.242,0.081-0.379,0.108c-0.313,0.062-0.634,0.098-0.964,0.098H163.559h-87.07   C73.733,392.413,71.492,390.172,71.492,387.416z M320.328,451.492c-0.604,0-1.205-0.112-1.784-0.334l-106.342-40.745h60.233   c0.438,0,0.874-0.015,1.306-0.04c0.143-0.008,0.285-0.021,0.428-0.032c0.29-0.021,0.579-0.046,0.867-0.079   c0.165-0.019,0.33-0.041,0.495-0.063c0.268-0.037,0.533-0.077,0.798-0.123c0.164-0.027,0.329-0.056,0.493-0.088   c0.283-0.055,0.563-0.117,0.844-0.183c0.135-0.031,0.271-0.06,0.405-0.094c0.413-0.104,0.822-0.219,1.227-0.345   c0.036-0.012,0.071-0.025,0.107-0.037c0.38-0.121,0.754-0.252,1.125-0.393c0.092-0.034,0.183-0.072,0.274-0.107   c0.331-0.131,0.657-0.268,0.981-0.412c0.074-0.033,0.148-0.066,0.223-0.101c0.389-0.179,0.772-0.366,1.149-0.566   c0.036,0.001,0.07,0.001,0.106,0.001c1.047,0.022,2.096,0.035,3.137,0.035c20.384,0,40.351-4.212,58.83-12.316l-20.233,52.81   C324.262,450.202,322.385,451.492,320.328,451.492z M437.296,141.224c1.246,0.478,2.231,1.412,2.775,2.631s0.58,2.576,0.103,3.822   l-20.249,52.848c-0.092-0.202-0.189-0.399-0.283-0.601c-0.206-0.449-0.419-0.896-0.631-1.342c-0.369-0.781-0.744-1.559-1.127-2.331   c-0.225-0.453-0.449-0.905-0.678-1.355c-0.406-0.798-0.82-1.591-1.24-2.38c-0.21-0.396-0.417-0.796-0.631-1.19   c-0.596-1.095-1.202-2.183-1.824-3.262c-0.043-0.074-0.083-0.15-0.126-0.225c-0.664-1.147-1.347-2.282-2.04-3.41   c-0.227-0.367-0.459-0.729-0.688-1.095c-0.483-0.771-0.972-1.538-1.469-2.299c-0.269-0.411-0.541-0.82-0.813-1.229   c-0.484-0.724-0.974-1.442-1.47-2.156c-0.274-0.396-0.547-0.791-0.825-1.183c-0.559-0.789-1.127-1.57-1.701-2.348   c-0.218-0.294-0.43-0.591-0.649-0.884c-0.794-1.059-1.602-2.107-2.423-3.145c-0.174-0.219-0.354-0.432-0.527-0.649   c-0.658-0.82-1.323-1.636-1.998-2.441c-0.295-0.351-0.594-0.698-0.893-1.046c-0.574-0.674-1.153-1.342-1.739-2.004   c-0.323-0.364-0.647-0.728-0.974-1.089c-0.6-0.663-1.206-1.319-1.817-1.973c-0.306-0.325-0.608-0.653-0.916-0.976   c-0.774-0.813-1.561-1.615-2.354-2.409c-0.146-0.146-0.288-0.296-0.435-0.44c-0.939-0.934-1.895-1.853-2.859-2.761   c-0.283-0.266-0.571-0.525-0.855-0.789c-0.695-0.644-1.395-1.282-2.102-1.912c-0.356-0.317-0.716-0.632-1.076-0.945   c-0.66-0.577-1.326-1.149-1.998-1.714c-0.367-0.31-0.734-0.619-1.104-0.925c-0.725-0.599-1.457-1.188-2.192-1.772   c-0.313-0.247-0.62-0.498-0.934-0.743c-1.047-0.817-2.104-1.623-3.173-2.412c-0.146-0.107-0.295-0.21-0.44-0.317   c-0.93-0.681-1.867-1.352-2.813-2.011c-0.366-0.255-0.737-0.505-1.106-0.757c-0.743-0.508-1.49-1.01-2.243-1.504   c-0.409-0.27-0.821-0.536-1.233-0.801c-0.748-0.48-1.5-0.952-2.256-1.418c-0.397-0.245-0.793-0.492-1.193-0.733   c-0.893-0.539-1.793-1.066-2.699-1.587c-0.258-0.148-0.514-0.303-0.773-0.45c-1.164-0.659-2.338-1.302-3.521-1.931   c-0.313-0.166-0.629-0.324-0.943-0.488c-0.882-0.459-1.767-0.913-2.658-1.355c-0.43-0.213-0.862-0.42-1.295-0.629   c-0.8-0.388-1.604-0.768-2.412-1.141c-0.449-0.207-0.897-0.413-1.349-0.615c-0.848-0.381-1.7-0.75-2.556-1.115   c-0.398-0.17-0.795-0.344-1.195-0.51c-1.251-0.52-2.508-1.027-3.776-1.513c-1.581-0.606-3.171-1.175-4.766-1.724   c-0.292-0.102-0.585-0.205-0.878-0.304c-1.54-0.521-3.086-1.015-4.637-1.482c-0.291-0.088-0.583-0.172-0.875-0.258   c-1.609-0.475-3.223-0.93-4.843-1.349c-0.004-0.001-0.008-0.002-0.008-0.002c-1.628-0.42-3.259-0.802-4.894-1.164   c-0.297-0.065-0.594-0.133-0.891-0.197c-1.58-0.34-3.164-0.653-4.753-0.939c-0.293-0.054-0.587-0.103-0.88-0.153   c-1.641-0.286-3.285-0.552-4.936-0.781c-0.01-0.002-0.021-0.004-0.031-0.005c-1.658-0.23-3.321-0.422-4.988-0.596   c-0.299-0.03-0.598-0.063-0.897-0.092c-1.614-0.158-3.231-0.289-4.852-0.392c-0.112-0.007-0.224-0.021-0.336-0.027V86.868   L437.296,141.224z"/><path d="M174.463,187.136c-21.684,0-39.324,17.641-39.324,39.324s17.641,39.324,39.324,39.324   c21.683,0,39.323-17.641,39.323-39.324S196.146,187.136,174.463,187.136z M174.463,247.784c-11.758,0-21.324-9.566-21.324-21.324   s9.566-21.324,21.324-21.324s21.323,9.566,21.323,21.324S186.221,247.784,174.463,247.784z"/></g></svg>