<?xml version="1.0" ?><svg style="enable-background:new 0 0 44 44;" version="1.1" viewBox="0 0 44 44" xml:space="preserve" xmlns="http://www.w3.org/2000/svg" xmlns:xlink="http://www.w3.org/1999/xlink"><g id="ghost"/><g id="bat"/><g id="monster"/><g id="jason"/><g id="grave"/><g id="skull"/><g id="cauldron"/><g id="cleaver"/><g id="candle"/><g id="cat"/><g id="owl"/><g id="pumkin"/><g id="eye"/><g id="vampire"/><g id="finger"/><g id="leaf"/><g id="coffin"/><g id="broom"/><g id="moon"/><g id="poison"/><g id="sweet"/><g id="zombie"><g><g><path d="M29,20.005h-3c-0.552,0-1-0.447-1-1s0.448-1,1-1h3c0.552,0,1,0.447,1,1S29.552,20.005,29,20.005z"/></g><g><path d="M18,20.005h-3c-0.552,0-1-0.447-1-1s0.448-1,1-1h3c0.552,0,1,0.447,1,1S18.552,20.005,18,20.005z"/></g><path d="M29.414,24.004l0.293-0.293c0.391-0.391,0.391-1.023,0-1.414s-1.023-0.391-1.414,0L28,22.59l-0.293-0.293    c-0.391-0.391-1.023-0.391-1.414,0s-0.391,1.023,0,1.414l0.293,0.293l-0.293,0.293c-0.391,0.391-0.391,1.023,0,1.414    c0.195,0.195,0.451,0.293,0.707,0.293s0.512-0.098,0.707-0.293L28,25.418l0.293,0.293c0.195,0.195,0.451,0.293,0.707,0.293    s0.512-0.098,0.707-0.293c0.391-0.391,0.391-1.023,0-1.414L29.414,24.004z"/><path d="M17.414,24.004l0.293-0.293c0.391-0.391,0.391-1.023,0-1.414s-1.023-0.391-1.414,0L16,22.59l-0.293-0.293    c-0.391-0.391-1.023-0.391-1.414,0s-0.391,1.023,0,1.414l0.293,0.293l-0.293,0.293c-0.391,0.391-0.391,1.023,0,1.414    c0.195,0.195,0.451,0.293,0.707,0.293s0.512-0.098,0.707-0.293L16,25.418l0.293,0.293c0.195,0.195,0.451,0.293,0.707,0.293    s0.512-0.098,0.707-0.293c0.391-0.391,0.391-1.023,0-1.414L17.414,24.004z"/><path d="M22,28.003c-1.654,0-3,1.345-3,2.999v2c0,1.654,1.346,2.999,3,2.999s3-1.345,3-2.999v-2    C25,29.349,23.654,28.003,22,28.003z M22,35.002c-0.924,0-1.67-0.643-1.898-1.497c0.565-0.312,1.206-0.503,1.898-0.503    s1.333,0.191,1.898,0.503C23.67,34.359,22.924,35.002,22,35.002z"/><path d="M38,17.122v-0.125v-0.002v-3.997c0-0.741-0.07-1.493-0.214-2.298c-0.05-0.276-0.214-0.52-0.452-0.67    c-0.224-0.142-0.492-0.177-0.749-0.12c-1.146-4.272-4.63-7.607-8.922-8.594c0.038-0.203,0.021-0.415-0.07-0.607    c-0.144-0.307-0.432-0.519-0.768-0.566C26.135,0.045,25.555,0.009,25,0.009L19,0C11.832,0,6,5.831,6,12.997v3.997v0.002v0.127    c-1.723,0.444-3,2.011-3,3.87c0,1.269,0.616,2.479,1.651,3.238C5.508,24.855,6,25.767,6,26.732v0.64    c0,1.453,0.245,2.891,0.727,4.274c0.095,0.271,0.301,0.488,0.567,0.597c0.267,0.109,0.566,0.098,0.823-0.03    C9.498,31.523,11,32.597,11,33.993c0,0.304-0.079,0.61-0.233,0.91c-0.125,0.243-0.146,0.526-0.056,0.785    c0.089,0.258,0.281,0.469,0.529,0.582c1.021,0.467,1.688,1.456,1.742,2.581c0.014,0.279,0.144,0.541,0.359,0.721l2.685,2.233    c0.65,0.548,1.265,0.953,1.869,1.235C19.228,43.684,20.608,44,22,44c2.12,0,4.229-0.734,5.939-2.163l5.38-4.479    c2.974-2.475,4.68-6.115,4.68-9.986v-0.64c0-0.965,0.492-1.877,1.351-2.502C40.384,23.473,41,22.263,41,20.994    C41,19.134,39.723,17.566,38,17.122z M32.457,6.376c-0.589,0.403-1.261,0.622-1.957,0.622c-1.93,0-3.5-1.57-3.5-3.499    c0-0.095,0.012-0.19,0.021-0.285C29.148,3.657,31.046,4.793,32.457,6.376z M19,2h6c0.07,0,0.142,0.001,0.213,0.003    C25.072,2.49,25,2.993,25,3.499c0,3.032,2.467,5.499,5.5,5.499c0.538,0,1.066-0.079,1.574-0.233    c0.355,1.824,1.955,3.208,3.876,3.233c0.034,0.341,0.05,0.673,0.05,1v0.632c-1.72-1.793-4.279-3.326-6.886-3.626    c-0.238-0.03-0.483,0.033-0.682,0.17c-3.547,2.447-9.317,2.447-12.864,0c-0.199-0.138-0.443-0.203-0.682-0.17    c-2.607,0.3-5.166,1.833-6.886,3.626v-0.632C8,6.933,12.935,2,19,2z M38.171,22.615C36.792,23.619,36,25.12,36,26.732v0.64    c0,3.276-1.443,6.355-3.959,8.449l-5.382,4.48c-2.223,1.858-5.247,2.217-7.905,0.931c-0.455-0.212-0.926-0.525-1.444-0.962    l-2.372-1.973c-0.191-1.373-0.935-2.588-2.052-3.378C12.962,34.615,13,34.306,13,33.993c0-2.206-1.794-3.999-4-3.999    c-0.224,0-0.446,0.02-0.666,0.059C8.112,29.175,8,28.277,8,27.372v-0.64c0-1.612-0.792-3.113-2.168-4.115    C5.303,22.229,5,21.638,5,20.994c0-0.756,0.428-1.408,1.051-1.747C6.164,19.675,6.537,19.996,7,19.996c0.552,0,1-0.447,1-1v-1.845    c0.624-1.786,3.506-4.569,6.764-5.112c4.14,2.634,10.333,2.634,14.473,0c3.258,0.543,6.14,3.326,6.764,5.112v0.846v1    c0,0.553,0.448,1,1,1c0.464,0,0.837-0.322,0.95-0.751c0.622,0.339,1.05,0.992,1.05,1.749C39,21.638,38.697,22.229,38.171,22.615z"/></g></g><g id="hat"/><g id="candy"/></svg>